:SAMPLES-PER-SECOND 30
:FRAME-RANGE 1-2009
:FULLY-SPECIFIED
:DEGREES
1507
root  98.8509 38.3219 16.9069 -178.757 -50.0496 -177.877
RightUpLeg  -20.5099 11.7401 -13.1226
RightLeg  16.4194 14.3649 4.02395
RightFoot  -7.37011 -0.674071 17.8515
RightToes  2.96424e-010 1.2921e-014 -6.02303e-014
Spine  -1.42499 1.44105 5.17581
Spine1  9.27203 3.886 -9.02612
HEad  -7.22253 5.84924 -19.1097
LeftShoulder1  1.1653 -0.844835 -21.9872
LeftArm  1.45067 13.1307 -45.2102
LeftForeArm  16.3754 -3.55586 -13.5067
LeftHand  -2.94472 1.46002 75.443
RightShoulder  2.21886 5.61839 18.4363
RightArm  -14.6363 41.4166 55.2844
RightForeArm  13.497 28.5068 5.43654
RightHand  0.331401 0.416702 6.60557
LeftUpLeg  -13.9698 -17.7064 -1.7855
LeftLeg  33.3842 -3.55157 -2.15421
LeftFoot  -17.1428 0.339391 4.66191
LeftToes  -1.2485e-010 1.20979e-011 -1.0929e-011
1508
root  98.7873 38.2978 16.0739 -178.754 -51.6563 -177.796
RightUpLeg  -21.4029 12.2859 -12.2407
RightLeg  20.504 11.9893 4.71453
RightFoot  -7.69275 -0.505001 14.1376
RightToes  2.96424e-010 1.2921e-014 -6.02303e-014
Spine  -0.584533 1.1849 5.25731
Spine1  8.90976 3.64083 -9.11005
HEad  -6.69105 6.27383 -19.9718
LeftShoulder1  1.07154 -0.430882 -22.6227
LeftArm  1.95168 12.9398 -43.8293
LeftForeArm  16.768 -3.40795 -13.5972
LeftHand  -3.96355 0.123886 75.4329
RightShoulder  2.26332 5.27976 20.0515
RightArm  -14.9073 37.8646 54.6428
RightForeArm  14.6599 31.9339 6.20184
RightHand  0.285299 0.548092 5.54101
LeftUpLeg  -14.0241 -18.6832 -0.828344
LeftLeg  35.0079 -4.38928 -2.93167
LeftFoot  -17.4875 0.279125 3.24184
LeftToes  -1.2485e-010 1.20979e-011 -1.0929e-011
1509
root  98.6971 38.3689 15.2674 -178.748 -53.5315 -177.516
RightUpLeg  -21.1911 11.5027 -10.8649
RightLeg  22.5067 10.7146 4.63542
RightFoot  -8.35254 -0.36031 11.5897
RightToes  2.96424e-010 1.2921e-014 -6.02303e-014
Spine  -0.210528 0.999215 4.86829
Spine1  8.87428 3.25193 -8.36194
HEad  -5.97659 6.59129 -20.6148
LeftShoulder1  1.00939 -0.208556 -22.67
LeftArm  0.740378 13.4141 -44.0441
LeftForeArm  18.2125 -2.87868 -13.4235
LeftHand  -5.31296 -1.59269 75.8791
RightShoulder  2.24684 4.89796 21.1479
RightArm  -16.892 34.3168 53.8156
RightForeArm  14.7258 33.5767 6.6199
RightHand  0.362354 1.37456 6.1016
LeftUpLeg  -14.4659 -19.3785 0.371254
LeftLeg  36.6695 -5.5766 -4.07153
LeftFoot  -16.7372 0.186802 1.83196
LeftToes  -1.2485e-010 1.20979e-011 -1.0929e-011
1510
root  98.5862 38.5247 14.5949 -178.391 -56.0594 -176.937
RightUpLeg  -20.5272 10.046 -9.66556
RightLeg  22.362 9.51763 4.07014
RightFoot  -8.73858 -0.293544 10.2733
RightToes  2.96424e-010 1.2921e-014 -6.02303e-014
Spine  -0.581019 0.583825 4.79894
Spine1  9.07296 2.46788 -6.94323
HEad  -5.04917 7.14087 -21.0362
LeftShoulder1  0.997239 -0.2204 -22.2024
LeftArm  0.0428651 14.6262 -45.0256
LeftForeArm  18.7033 -2.75017 -13.3125
LeftHand  -6.87639 -3.48692 76.8016
RightShoulder  2.10501 4.27787 21.5316
RightArm  -18.2563 31.4817 53.4379
RightForeArm  15.4822 33.6316 6.58969
RightHand  0.425544 2.11284 6.40933
LeftUpLeg  -16.1372 -20.2061 1.95893
LeftLeg  38.4929 -7.04878 -5.60461
LeftFoot  -14.7201 0.0966788 0.283311
LeftToes  -1.2485e-010 1.20979e-011 -1.0929e-011
1511
root  98.4614 38.698 14.0308 -178.193 -58.1495 -176.156
RightUpLeg  -19.6233 8.32791 -8.48358
RightLeg  21.1965 9.03019 3.63577
RightFoot  -8.84256 -0.264594 9.34989
RightToes  2.96424e-010 1.2921e-014 -6.02303e-014
Spine  -0.253899 0.352745 5.6913
Spine1  8.30005 2.08206 -6.46615
HEad  -3.83527 7.87211 -20.971
LeftShoulder1  0.953206 -0.0662801 -22.1876
LeftArm  1.42764 15.6054 -45.2618
LeftForeArm  18.4614 -3.18453 -13.5266
LeftHand  -7.81467 -4.50673 77.8559
RightShoulder  2.03493 3.98764 21.6789
RightArm  -20.3154 28.3146 52.137
RightForeArm  16.7743 34.2904 6.68677
RightHand  0.496244 2.98245 6.651
LeftUpLeg  -18.3283 -20.2036 3.51972
LeftLeg  40.7867 -8.13881 -7.08302
LeftFoot  -11.937 0.0630266 -1.65024
LeftToes  -1.2485e-010 1.20979e-011 -1.0929e-011
1512
root  98.3199 38.8265 13.5358 -178.028 -59.5008 -175.539
RightUpLeg  -18.8442 6.06689 -7.40703
RightLeg  20.1782 9.79278 3.74003
RightFoot  -8.96425 -0.240489 8.6332
RightToes  2.96424e-010 1.2921e-014 -6.02303e-014
Spine  0.106589 0.541389 6.7727
Spine1  7.80042 2.25812 -6.41523
HEad  -3.11454 8.5737 -20.7061
LeftShoulder1  0.873992 0.228093 -22.3242
LeftArm  2.07079 16.2508 -45.8081
LeftForeArm  19.7424 -3.57244 -13.5579
LeftHand  -8.1791 -4.77648 78.9057
RightShoulder  2.0173 3.80043 22.1952
RightArm  -22.2881 25.4619 49.4159
RightForeArm  17.7914 35.9456 7.07375
RightHand  0.60503 3.69495 7.46037
LeftUpLeg  -20.1262 -19.0772 4.45915
LeftLeg  42.7017 -7.97021 -7.4235
LeftFoot  -9.7621 0.112617 -3.92415
LeftToes  -1.2485e-010 1.20979e-011 -1.0929e-011
1513
root  98.1565 38.9198 13.0941 -177.893 -60.7365 -175.14
RightUpLeg  -18.0667 3.82278 -6.41541
RightLeg  19.5003 10.7711 3.70057
RightFoot  -9.25909 -0.20556 7.83145
RightToes  2.96424e-010 1.2921e-014 -6.02303e-014
Spine  0.011957 0.723785 7.35972
Spine1  8.16772 2.38465 -6.07943
HEad  -2.66796 9.59299 -20.3051
LeftShoulder1  0.764243 0.616182 -22.341
LeftArm  2.11477 16.9609 -46.7247
LeftForeArm  20.8761 -3.81474 -13.504
LeftHand  -9.09816 -5.68752 80.0677
RightShoulder  1.96875 3.57198 22.4424
RightArm  -24.3963 23.219 47.1257
RightForeArm  17.1351 37.0907 7.43619
RightHand  0.831377 4.94465 9.00411
LeftUpLeg  -21.2555 -17.3345 4.62082
LeftLeg  43.6414 -6.17096 -5.87584
LeftFoot  -8.84146 0.155255 -4.68547
LeftToes  -1.2485e-010 1.20979e-011 -1.0929e-011
1514
root  97.9602 39.0188 12.7053 -177.567 -62.3763 -174.931
RightUpLeg  -17.2996 0.86543 -5.65338
RightLeg  18.8512 12.0038 3.81336
RightFoot  -9.48922 -0.17821 7.02265
RightToes  2.96424e-010 1.2921e-014 -6.02303e-014
Spine  -0.111058 0.610523 7.48917
Spine1  8.26034 2.13113 -5.61631
HEad  -1.62748 10.7977 -19.9525
LeftShoulder1  0.667346 0.981178 -22.6512
LeftArm  2.35605 18.2518 -47.2861
LeftForeArm  21.0497 -4.35714 -13.4154
LeftHand  -10.9116 -7.61863 81.2659
RightShoulder  1.89144 3.25293 22.6618
RightArm  -25.6753 20.8078 45.3181
RightForeArm  18.6595 38.5477 7.76565
RightHand  1.06309 5.86576 10.5814
LeftUpLeg  -22.068 -15.19 4.31119
LeftLeg  43.5613 -3.92396 -3.5922
LeftFoot  -10.0621 0.108753 -4.3384
LeftToes  -1.2485e-010 1.20979e-011 -1.0929e-011
1515
root  97.7417 39.1155 12.3705 -176.9 -64.4173 -174.944
RightUpLeg  -16.6386 -1.81601 -5.2373
RightLeg  18.0977 12.5838 3.79755
RightFoot  -9.70896 -0.158445 6.4806
RightToes  2.96424e-010 1.2921e-014 -6.02303e-014
Spine  -0.226588 0.340078 7.38113
Spine1  8.05069 1.69174 -5.18165
HEad  -0.559049 11.5501 -19.5767
LeftShoulder1  0.594947 1.25239 -22.933
LeftArm  1.43233 19.5054 -47.8153
LeftForeArm  22.1397 -4.12653 -13.3177
LeftHand  -13.0367 -9.77204 82.7013
RightShoulder  1.82774 2.92799 23.1648
RightArm  -24.4965 17.7228 43.1174
RightForeArm  21.9489 41.6528 8.51636
RightHand  1.10229 5.99794 10.8462
LeftUpLeg  -22.8177 -12.6774 3.76756
LeftLeg  42.4895 -2.9204 -2.47116
LeftFoot  -11.5036 0.0624948 -4.53955
LeftToes  -1.2485e-010 1.20979e-011 -1.0929e-011
1516
root  97.5132 39.1952 12.0851 -176.259 -66.6982 -174.85
RightUpLeg  -16.0116 -3.99954 -4.94595
RightLeg  17.2214 12.4232 3.6386
RightFoot  -9.94508 -0.141787 6.08198
RightToes  2.96424e-010 1.2921e-014 -6.02303e-014
Spine  -0.402463 0.023519 7.23164
Spine1  7.98029 1.19787 -4.72397
HEad  0.148216 11.5275 -19.0697
LeftShoulder1  0.535072 1.46284 -22.9972
LeftArm  0.436864 20.4746 -48.432
LeftForeArm  23.582 -3.64186 -13.2568
LeftHand  -14.9038 -11.4681 84.3266
RightShoulder  1.70183 2.47095 23.2992
RightArm  -21.7616 14.3909 41.5537
RightForeArm  26.3218 45.5855 9.57416
RightHand  0.944189 5.03363 10.1667
LeftUpLeg  -23.5482 -9.59977 3.21603
LeftLeg  40.7817 -3.02188 -2.40876
LeftFoot  -12.4333 0.0251322 -5.17519
LeftToes  -1.2485e-010 1.20979e-011 -1.0929e-011
1517
root  97.2676 39.2575 11.8471 -175.419 -69.2798 -174.969
RightUpLeg  -15.3081 -6.10214 -4.98041
RightLeg  16.277 11.9339 3.67221
RightFoot  -10.305 -0.123008 5.85224
RightToes  2.96424e-010 1.2921e-014 -6.02303e-014
Spine  -0.450748 -0.302742 7.02273
Spine1  7.62007 0.697333 -4.31343
HEad  1.17673 11.1317 -18.4575
LeftShoulder1  0.525181 1.50792 -23.1854
LeftArm  0.259904 21.0921 -48.6187
LeftForeArm  25.0042 -2.98747 -13.3703
LeftHand  -16.2059 -12.3948 86.0943
RightShoulder  1.57897 2.09338 23.0565
RightArm  -17.8421 11.0442 40.8589
RightForeArm  31.8672 49.1608 10.5673
RightHand  0.699044 3.36261 9.00912
LeftUpLeg  -24.3504 -6.78044 2.75981
LeftLeg  38.6766 -2.98213 -2.18649
LeftFoot  -12.6973 0.00245179 -6.21234
LeftToes  -1.2485e-010 1.20979e-011 -1.0929e-011
1518
root  97.0013 39.3084 11.6519 -174.195 -71.9578 -175.532
RightUpLeg  -14.4946 -7.31921 -5.30664
RightLeg  15.2467 10.5014 3.50983
RightFoot  -10.8144 -0.101372 6.05826
RightToes  2.96424e-010 1.2921e-014 -6.02303e-014
Spine  -0.673871 -0.484987 6.84137
Spine1  7.42611 0.383379 -4.05854
HEad  1.93282 10.5334 -17.8976
LeftShoulder1  0.538429 1.48514 -23.5672
LeftArm  0.184905 21.1505 -48.4906
LeftForeArm  26.7429 -2.25705 -13.476
LeftHand  -17.3708 -13.2107 87.5399
RightShoulder  1.53052 1.99685 22.6464
RightArm  -13.5397 8.12054 41.1592
RightForeArm  36.5574 51.3412 11.1523
RightHand  0.363779 0.775795 6.78992
LeftUpLeg  -25.3106 -4.77105 2.59023
LeftLeg  36.3184 -2.30808 -1.4596
LeftFoot  -11.9505 0.0373985 -6.41848
LeftToes  -1.2485e-010 1.20979e-011 -1.0929e-011
1519
root  96.7131 39.3545 11.4854 -173.329 -74.5955 -175.936
RightUpLeg  -13.4093 -7.4299 -5.52211
RightLeg  14.1351 8.06284 2.91953
RightFoot  -11.2625 -0.0810203 6.50878
RightToes  2.96424e-010 1.2921e-014 -6.02303e-014
Spine  -0.622974 -0.386625 7.00176
Spine1  7.18211 0.461445 -4.16104
HEad  2.5711 9.70731 -17.0331
LeftShoulder1  0.539401 1.49018 -23.7103
LeftArm  -0.0735474 20.6388 -48.4269
LeftForeArm  28.9954 -1.44796 -13.5056
LeftHand  -18.6844 -14.2982 88.505
RightShoulder  1.54652 2.06659 22.5672
RightArm  -10.5298 4.90142 41.7341
RightForeArm  38.3625 51.4337 11.0533
RightHand  0.168711 -0.00361302 3.65946
LeftUpLeg  -26.1652 -3.12344 2.95422
LeftLeg  33.5715 -1.20588 -0.509466
LeftFoot  -11.1262 0.0788188 -6.4984
LeftToes  -1.2485e-010 1.20979e-011 -1.0929e-011
